<svg width="19" height="18" viewBox="0 0 19 18" fill="none" xmlns="http://www.w3.org/2000/svg"><path d="M12.402 9.16v6.043c0 .854-.67 1.547-1.511 1.547H4.345c-.842 0-1.512-.693-1.512-1.547V5.922A1.555 1.555 0 014.38 4.375h3.31a.864.864 0 01.616.259l3.84 3.902a.893.893 0 01.255.625v0z" stroke="#C0BEFF" stroke-width="1.25" stroke-linejoin="round"/><path d="M7.617 4.375v3.797a.996.996 0 00.985.984h3.8" stroke="#C0BEFF" stroke-width="1.25" stroke-linecap="round" stroke-linejoin="round"/><path d="M6.773 4.375V2.547A1.556 1.556 0 018.32 1h3.307a.874.874 0 01.62.259l3.84 3.902a.882.882 0 01.254.62v6.047c0 .854-.67 1.547-1.511 1.547h-2.148" stroke="#C0BEFF" stroke-width="1.25" stroke-linejoin="round"/><path d="M11.557 1v3.797a.996.996 0 00.985.984h3.8" stroke="#C0BEFF" stroke-width="1.25" stroke-linecap="round" stroke-linejoin="round"/></svg>