<svg width="22" height="22" viewBox="0 0 22 22" fill="none" xmlns="http://www.w3.org/2000/svg"><path d="M16.766 6.488a1.822 1.822 0 00-1.79-.79 2.5 2.5 0 01-2.664-1.521 1.823 1.823 0 00-1.59-1.143 7.786 7.786 0 00-.782 0 1.827 1.827 0 00-1.594 1.157 2.5 2.5 0 01-2.647 1.541 1.824 1.824 0 00-1.792.817c-.153.24-.293.488-.419.743-.305.621-.187 1.336.24 1.881a2.499 2.499 0 01.011 3.067c-.424.55-.537 1.267-.227 1.89a7.517 7.517 0 00.43.747 1.823 1.823 0 001.79.79 2.5 2.5 0 012.664 1.521c.272.657.88 1.108 1.59 1.143.26.013.521.013.782 0a1.826 1.826 0 001.594-1.157 2.499 2.499 0 012.646-1.541 1.824 1.824 0 001.793-.816 7.65 7.65 0 00.418-.744c.306-.62.188-1.336-.239-1.881a2.5 2.5 0 01-.011-3.067c.423-.55.537-1.267.227-1.889a6.812 6.812 0 00-.43-.748z" stroke="#C0BEFF" stroke-width="1.326" stroke-linecap="round" stroke-linejoin="round"/><path d="M10.355 12.746a2.063 2.063 0 100-4.126 2.063 2.063 0 000 4.126z" stroke="#C0BEFF" stroke-width="1.326" stroke-linecap="round" stroke-linejoin="round"/></svg>