<svg width="16" height="13" viewBox="0 0 16 13" fill="none" xmlns="http://www.w3.org/2000/svg"><path d="M6.504 6.575A2.828 2.828 0 009.33 3.75 2.824 2.824 0 006.504.925 2.828 2.828 0 003.677 3.75a2.824 2.824 0 002.827 2.825zm1.76-2.825a1.758 1.758 0 01-1.76 1.758 1.76 1.76 0 01-1.76-1.758 1.758 1.758 0 011.76-1.758 1.76 1.76 0 011.76 1.758zM11.09 12v.075h.014l.031-.002a1.205 1.205 0 00.447-.12.88.88 0 00.345-.298 1.01 1.01 0 00.156-.572c0-.477-.237-1.413-1.054-2.23-.82-.819-2.216-1.511-4.525-1.511-2.31 0-3.706.692-4.525 1.511-.817.817-1.054 1.753-1.054 2.23 0 .243.06.43.156.572a.88.88 0 00.344.298 1.205 1.205 0 00.48.122h.012V12v.075h9.173V12zm-.816-2.393c.547.546.709 1.135.737 1.398H1.997c.028-.264.19-.852.737-1.398.58-.58 1.685-1.199 3.77-1.199 2.084 0 3.189.618 3.77 1.2zm1.194-4.401h0l.998.998 2.375-2.373-3.373 1.375zm0 0a.534.534 0 00-.755.755l1.376 1.375-.62-2.13zm4.128-1.375a.533.533 0 010 .755h0l-.053-.053.053.053-2.752 2.75s0 0 0 0h0l-.053-.053a.458.458 0 01-.5.1l3.305-3.552zm0 0l-.053.053m.053-.053l-.053.053m0 0l.053-.053a.534.534 0 00-.755 0l.702.053z" fill="#C0BEFF" stroke="#C0BEFF" stroke-width=".15"/></svg>