<svg width="20" height="19" viewBox="0 0 20 19" fill="none" xmlns="http://www.w3.org/2000/svg"><path d="M5.629 10.891a.625.625 0 01.173.589l-1.18 5.108-.002.003a.165.165 0 00.16.203c.034 0 .067-.01.094-.029l.003-.002h0l4.314-2.873c.21-.14.483-.14.693 0l4.312 2.873s0 0 0 0a.17.17 0 00.252-.085.166.166 0 00.003-.1s0 0 0 0l-1.448-5.065a.625.625 0 01.183-.636l3.593-3.232-11.15 3.246zm0 0L2.29 7.64m3.34 3.25L2.29 7.64m6.525-5.59L6.861 6.373l-4.516.359a.793.793 0 00-.49 1.356l6.96-6.038zm0 0a.79.79 0 011.444 0m-1.444 0h1.444M2.29 7.64s0 0 0 0a.166.166 0 01.104-.285h0l4.516-.359a.625.625 0 00.52-.366l1.955-4.323h0v-.002a.165.165 0 01.303 0l.001.002 1.955 4.323a.625.625 0 00.52.366l4.516.36h0a.167.167 0 01.1.29L2.29 7.64zm7.969-5.59l1.954 4.323L10.26 2.05z" stroke="#C0BEFF" stroke-width="1.25" stroke-linejoin="round"/></svg>