<svg width="13" height="13" viewBox="0 0 13 13" fill="none" xmlns="http://www.w3.org/2000/svg"><path d="M5.083 7.208H.833a.708.708 0 00-.708.709v4.25a.708.708 0 00.708.708h4.25a.708.708 0 00.709-.708v-4.25a.708.708 0 00-.709-.709zm-.708 4.25H1.542V8.625h2.833v2.833zM12.167.125h-4.25a.708.708 0 00-.709.708v4.25a.708.708 0 00.709.709h4.25a.708.708 0 00.708-.709V.833a.708.708 0 00-.708-.708zm-.709 4.25H8.625V1.542h2.833v2.833zm.709 4.958H10.75V7.917a.708.708 0 10-1.417 0v1.416H7.917a.708.708 0 100 1.417h1.416v1.417a.708.708 0 001.417 0V10.75h1.417a.708.708 0 100-1.417zM5.083.125H.833a.708.708 0 00-.708.708v4.25a.708.708 0 00.708.709h4.25a.708.708 0 00.709-.709V.833a.708.708 0 00-.709-.708zm-.708 4.25H1.542V1.542h2.833v2.833z" fill="#5855D6"/></svg>