<svg width="21" height="20" viewBox="0 0 21 20" fill="none" xmlns="http://www.w3.org/2000/svg"><path fill-rule="evenodd" clip-rule="evenodd" d="M14.472 12.899l5.428 5.38a1.004 1.004 0 010 1.427 1.022 1.022 0 01-1.44-.001l-5.428-5.38a8.123 8.123 0 01-11-1.036 7.957 7.957 0 01-2.01-5.541 7.966 7.966 0 012.36-5.405A8.107 8.107 0 017.833.004a8.116 8.116 0 015.59 1.993A7.95 7.95 0 0114.47 12.9h.002zM8.09 14a6.082 6.082 0 004.28-1.757A5.973 5.973 0 0014.145 8a5.973 5.973 0 00-1.774-4.243A6.081 6.081 0 008.09 2a6.082 6.082 0 00-4.28 1.757A5.973 5.973 0 002.035 8c0 1.591.638 3.117 1.773 4.243A6.082 6.082 0 008.09 14z" fill="#5855D6"/></svg>